<?xml version="1.0" encoding="UTF-8"?><svg id="Layer_1" xmlns="http://www.w3.org/2000/svg" viewBox="0 0 9.43 10.294"><defs><style>.cls-1{fill:#303030;stroke-width:0px;}</style></defs><path class="cls-1" d="m9.141,8.182c.177-.086.29-.266.29-.463V2.573c0-.196-.113-.375-.29-.461L4.95.054c-.148-.072-.321-.072-.469,0L.29,2.113C.113,2.198,0,2.377,0,2.573v5.146c0,.197.112.377.29.463l4.191,2.058c.148.072.321.072.469,0l4.191-2.058Zm-1.904-.322c-.192,0-.375-.111-.458-.299l-.515-1.172c-.42.909-1.235,1.471-2.147,1.471-1.336,0-2.423-1.217-2.423-2.713s1.087-2.713,2.423-2.713c.903,0,1.713.552,2.136,1.447l.49-1.145c.11-.254.404-.37.657-.263.254.109.371.403.263.657l-.858,2.001.891,2.026c.111.253-.004.548-.257.659-.065.028-.134.042-.201.042Zm-3.12-4.426c-.784,0-1.423.769-1.423,1.713s.639,1.713,1.423,1.713c.528,0,1.012-.358,1.26-.936l.337-.787-.336-.764c-.25-.581-.732-.939-1.261-.939Z"/></svg>