<?xml version="1.0" encoding="UTF-8"?><svg id="Layer_1" xmlns="http://www.w3.org/2000/svg" viewBox="0 0 9.43 10.294"><defs><style>.cls-1{fill:#303030;stroke-width:0px;}</style></defs><polygon class="cls-1" points="2.163 5.098 4.715 8.189 7.266 5.098 4.715 5.098 2.163 5.098"/><polygon class="cls-1" points="3.061 2.798 2.055 4.384 4.065 4.384 3.061 2.798"/><polygon class="cls-1" points="5.72 2.488 3.71 2.488 4.715 4.074 5.72 2.488"/><path class="cls-1" d="m9.141,2.113L4.95.054c-.148-.072-.321-.072-.469,0L.29,2.113c-.177.086-.289.264-.29.461v5.146c0,.197.113.377.29.463l4.191,2.058c.148.073.321.073.469,0l4.191-2.058c.177-.086.29-.266.29-.463V2.573c0-.196-.113-.375-.29-.461Zm-.785,2.729c-.007.024-.005.049-.017.071-.006.011-.018.016-.025.026-.006.009-.006.021-.013.03l-3.31,4.01c-.068.082-.169.13-.276.13s-.208-.048-.276-.13L1.13,4.969c-.007-.009-.007-.021-.013-.03-.007-.01-.019-.015-.025-.026-.012-.022-.01-.048-.017-.072-.009-.028-.019-.054-.02-.083-.002-.036.007-.07.017-.105.006-.022,0-.044.01-.065.003-.007.011-.01.015-.017.004-.007.003-.015.007-.022l1.655-2.61c.019-.03.049-.047.074-.07.018-.016.031-.036.051-.048.053-.03.113-.048.176-.048h3.309c.101,0,.186.051.253.123.015.016.036.024.049.043l1.655,2.61c.004.007.003.015.007.022.004.007.011.01.015.017.01.02.005.043.01.064.01.036.019.069.017.105-.001.029-.011.055-.02.083Z"/><polygon class="cls-1" points="5.365 4.384 7.375 4.384 6.37 2.798 5.365 4.384"/></svg>