<?xml version="1.0" encoding="UTF-8"?><svg id="Layer_1" xmlns="http://www.w3.org/2000/svg" viewBox="0 0 9.43 10.294"><defs><style>.cls-1{fill:#303030;}</style></defs><path class="cls-1" d="m9.141,8.182c.177-.086.29-.266.29-.463V2.573c0-.196-.113-.375-.29-.461L4.95.054c-.148-.072-.321-.072-.469,0L.29,2.113C.113,2.198,0,2.377,0,2.573v5.146c0,.197.112.377.29.463l4.191,2.058c.148.072.321.072.469,0l4.191-2.058ZM4.443,2.987v.722l-1.463,3.598h-.901l1.42-3.505h-1.845v-.815h2.789Zm3.334,3.116c0,.796-.592,1.29-1.549,1.29-.963,0-1.549-.494-1.549-1.29,0-.438.216-.815.592-1.043-.271-.197-.45-.494-.45-.895,0-.833.648-1.265,1.407-1.265s1.401.432,1.401,1.265c0,.401-.173.697-.451.895.383.228.598.605.598,1.043Zm-.845-.111c0-.383-.296-.592-.703-.592s-.703.21-.703.592c0,.389.296.599.703.599s.703-.21.703-.599Zm-1.259-1.783c0,.315.234.512.555.512s.555-.197.555-.512c0-.321-.235-.506-.555-.506s-.555.185-.555.506Z"/></svg>