<?xml version="1.0" encoding="UTF-8"?><svg id="Layer_1" xmlns="http://www.w3.org/2000/svg" viewBox="0 0 9.43 10.294"><defs><style>.cls-1{fill:#303030;}</style></defs><path class="cls-1" d="m9.141,8.182c.177-.086.29-.266.29-.463V2.573c0-.196-.113-.375-.29-.461L4.95.054c-.148-.072-.321-.072-.469,0L.29,2.113C.113,2.198,0,2.377,0,2.573v5.146c0,.197.112.377.29.463l4.191,2.058c.148.072.321.072.469,0l4.191-2.058Zm-3.12-2.862h.007l-1.346,2.03h-.975l.963-1.407c-.895-.019-1.519-.63-1.519-1.5,0-.882.642-1.5,1.562-1.5.932,0,1.567.617,1.567,1.5,0,.333-.092.636-.259.876Zm-1.308-.173c.407,0,.722-.265.722-.703s-.315-.697-.722-.697c-.395,0-.716.266-.716.697,0,.438.321.703.716.703Z"/></svg>