<?xml version="1.0" encoding="UTF-8"?><svg id="Layer_1" xmlns="http://www.w3.org/2000/svg" viewBox="0 0 9.43 10.294"><defs><style>.cls-1{fill:#303030;}</style></defs><g id="_9055058_bxs_cube_alt_icon"><path class="cls-1" d="m9.141,8.182c.177-.086.29-.266.29-.463V2.573c0-.196-.113-.375-.29-.461L4.95.054c-.148-.072-.321-.072-.469,0L.29,2.113C.113,2.198,0,2.377,0,2.573v5.146c0,.197.112.377.29.463l4.191,2.058c.148.072.321.072.469,0l4.191-2.058Zm-3.901.765v-3.997l3.143-1.544v3.995l-3.143,1.546Zm-4.191-1.544v-3.997l3.143,1.544v3.995l-3.143-1.542Z"/></g></svg>