<?xml version="1.0" encoding="UTF-8"?><svg id="Layer_1" xmlns="http://www.w3.org/2000/svg" viewBox="0 0 8.97 10.203"><defs><style>.cls-1{fill:#303030;}</style></defs><path class="cls-1" d="m8.97,2.801c0-.009-.006-.015-.006-.024-.004-.076-.019-.152-.06-.222-.001-.002-.002-.004-.003-.006-.041-.071-.099-.122-.163-.164-.007-.004-.01-.013-.017-.017L4.735.067c-.007-.004-.016-.003-.024-.006-.069-.036-.143-.061-.226-.061s-.158.025-.226.061c-.007.004-.016.002-.024.006L.25,2.368c-.008.005-.011.013-.018.018-.064.041-.121.092-.162.162-.001.002-.002.004-.004.006-.04.071-.056.146-.06.222,0,.008-.006.015-.006.024v4.602c0,.009.006.015.006.024.004.076.019.152.06.222.043.076.106.142.184.187l.004.002h0s3.982,2.299,3.982,2.299c.077.044.164.067.25.067s.173-.022.25-.067l3.981-2.299h0s.004-.002.004-.002c.078-.045.141-.111.184-.187.04-.071.056-.146.06-.222,0-.008.006-.015.006-.024V2.801Zm-7.97.866l1.722.994v.88l-1.722.994v-2.869Zm4.748.128l-.763-.44v-1.989l2.485,1.435-1.722.994Zm-1.249,2.18s-.008-.003-.013-.003-.009.003-.013.003l-.75-.433v-.881l.764-.44.763.44v.881l-.75.433Zm-.513-2.62l-.764.44-1.722-.994,2.485-1.435v1.989Zm-.764,3.053l.764.44v1.989l-2.485-1.435,1.722-.994Zm1.764.44l.763-.44,1.722.994-2.485,1.435v-1.989Zm1.263-1.307v-.88l1.722-.994v2.869l-1.722-.994Z"/></svg>