<?xml version="1.0" encoding="UTF-8"?><svg id="Layer_1" xmlns="http://www.w3.org/2000/svg" viewBox="0 0 10.669 10.186"><defs><style>.cls-1{fill:#303030;fill-rule:evenodd;}</style></defs><path class="cls-1" d="m10.536,4.772l-.87-.87c-.104-.102-.149-.245-.121-.391l.186-1.215c.039-.239-.13-.479-.377-.519l-1.215-.193c-.143-.023-.267-.113-.333-.242l-.559-1.091c-.106-.227-.387-.316-.61-.203l-1.097.558c-.129.066-.282.066-.412,0L4.032.049l-.005-.002c-.224-.11-.481-.019-.605.205l-.559,1.091c-.066.129-.19.219-.333.242l-1.215.193c-.247.039-.416.28-.377.519l.192,1.215c.023.153-.025.289-.127.391l-.87.87h0c-.177.177-.177.464,0,.641l.87.878c.103.105.15.24.127.383l-.192,1.22c-.039.242.13.474.377.514l1.215.193c.143.023.267.113.333.242l.559,1.096c.114.223.387.312.61.198l1.097-.558c.129-.061.282-.061.412,0l1.097.558c.223.114.504.025.61-.198l.559-1.096c.066-.129.19-.219.333-.242l1.215-.193c.247-.039.416-.271.377-.513l-.186-1.221c-.029-.14.017-.285.121-.383l.87-.878h0c.177-.177.177-.464,0-.641Zm-5.202,3.277c-1.633,0-2.956-1.324-2.956-2.956s1.324-2.956,2.956-2.956,2.956,1.324,2.956,2.956-1.324,2.956-2.956,2.956Zm.51-5.098v4.32h-.852v-3.419l-.815.228-.21-.728,1.136-.401h.741Z"/></svg>