<?xml version="1.0" encoding="UTF-8"?><svg id="Layer_1" xmlns="http://www.w3.org/2000/svg" viewBox="0 0 10.683 10.186"><defs><style>.cls-1{fill:#303030;}</style></defs><path class="cls-1" d="m10.089,4.748h-1.306l-.89-3.442c-.178-.772-.831-1.306-1.602-1.306-.119,0-.237.059-.297.119l-.178.119c-.237.178-.534.178-.772,0l-.297-.119c-.119-.059-.237-.119-.356-.119-.772,0-1.424.534-1.602,1.306l-.89,3.442H.593c-.356,0-.593.237-.593.593s.237.593.593.593h1.451c-.069.269-.117.546-.117.837,0,1.885,1.528,3.414,3.414,3.414s3.414-1.528,3.414-3.414c0-.291-.048-.568-.117-.837h1.451c.356,0,.593-.237.593-.593s-.237-.593-.593-.593ZM3.917,1.543c.059-.178.178-.297.356-.356.653.415,1.424.415,2.077,0,.178.059.297.178.356.356l.415,1.424h-3.561l.356-1.424Zm-.653,2.611h4.095l.178.593H3.145l.119-.593Z"/></svg>