<?xml version="1.0" encoding="UTF-8"?><svg id="Layer_1" xmlns="http://www.w3.org/2000/svg" viewBox="0 0 9.43 10.294"><defs><style>.cls-1{fill:#303030;stroke-width:0px;}</style></defs><path class="cls-1" d="m9.141,8.182c.177-.086.29-.266.29-.463V2.573c0-.196-.113-.375-.29-.461L4.95.054c-.148-.072-.321-.072-.469,0L.29,2.113C.113,2.198,0,2.377,0,2.573v5.146c0,.197.112.377.29.463l4.191,2.058c.148.072.321.072.469,0l4.191-2.058Zm-2.213-.322h-1.121c-.224,0-.421-.148-.481-.364s.029-.445.221-.562c.544-.333.882-.956.882-1.626,0-1.033-.769-1.873-1.713-1.873s-1.713.84-1.713,1.873c0,.67.338,1.293.883,1.626.191.117.281.347.221.562s-.258.364-.481.364h-1.122c-.276,0-.5-.224-.5-.5,0-.256.192-.467.44-.496-.282-.458-.44-.997-.44-1.557,0-1.584,1.217-2.873,2.713-2.873s2.713,1.289,2.713,2.873c0,.56-.158,1.099-.44,1.557.248.029.44.24.44.496,0,.276-.224.5-.5.5Z"/></svg>