<?xml version="1.0" encoding="UTF-8"?><svg id="Layer_1" xmlns="http://www.w3.org/2000/svg" viewBox="0 0 10.265 10.265"><defs><style>.cls-1{fill:#303030;}</style></defs><path class="cls-1" d="m3.792,10.265h-1.952c-1.015,0-1.84-.826-1.84-1.84v-1.952c0-1.015.825-1.84,1.84-1.84h2.792V1.84c0-1.015.826-1.84,1.841-1.84h1.951c1.015,0,1.841.826,1.841,1.84v1.952c0,1.015-.826,1.84-1.841,1.84h-2.792v2.792c0,1.015-.825,1.84-1.84,1.84Zm-1.952-4.632c-.463,0-.84.377-.84.84v1.952c0,.463.377.84.84.84h1.952c.463,0,.84-.377.84-.84v-2.792H1.84Zm3.792-1h2.792c.464,0,.841-.377.841-.84v-1.952c0-.463-.377-.84-.841-.84h-1.951c-.464,0-.841.377-.841.84v2.792Z"/></svg>