<?xml version="1.0" encoding="UTF-8"?><svg id="Layer_1" xmlns="http://www.w3.org/2000/svg" viewBox="0 0 10.264 10.265"><defs><style>.cls-1{fill:#303030;}</style></defs><path class="cls-1" d="m10.117,4.779l-.029-.029-.004-.004L5.486.147c-.091-.091-.216-.147-.354-.147s-.264.056-.354.147L.179,4.746l-.004.004-.029.029c-.195.195-.195.512,0,.707l4.632,4.632c.094.094.221.146.354.146s.26-.053.354-.146l4.632-4.632c.195-.195.195-.512,0-.707Zm-4.985.96l-.606-.606.606-.606.606.606-.606.606Zm-.5-2.127l-.99.99h-1.904l2.894-2.894v1.905Zm-1.051,1.99l1.051,1.051v1.905l-2.956-2.956h1.904Zm2.051,1.051l1.051-1.051h1.904l-2.956,2.956v-1.905Zm.99-2.051l-.99-.99v-1.905l2.894,2.894h-1.904Z"/></svg>