<?xml version="1.0" encoding="UTF-8"?><svg id="Layer_1" xmlns="http://www.w3.org/2000/svg" viewBox="0 0 6.161 10.184"><defs><style>.cls-1{fill:#303030;}</style></defs><path class="cls-1" d="m6.08,6.654c-.104-.301-.34-.537-.64-.642.144-.297.158-.641.039-.949-.136-.408-.516-.685-.946-.691h-.064c.051.212.051.434,0,.646h.065c.182,0,.343.118.399.292.071.175.034.376-.093.516l-.126.139h-1.903c-.023,0-.047-.002-.069-.007-.097-.018-.184-.069-.247-.145-.156-.188-.155-.46.003-.646.077-.093.191-.147.312-.148h.585c.18-.043.29-.224.247-.403-.028-.116-.116-.209-.23-.243h-.601c-.412.009-.778.265-.928.649-.02.047-.037.095-.05.144-.058.211-.058.434,0,.646.013.049.03.098.05.145.15.385.516.643.93.652h1.313l-1.524,1.667c-.399.452-.399,1.13,0,1.582.351.399.959.437,1.358.086.031-.027.059-.056.086-.086l1.815-1.985c.299-.331.385-.803.222-1.219m-.638.762l-1.815,1.985c-.149.169-.407.185-.576.036-.013-.011-.025-.023-.036-.036-.167-.191-.167-.477,0-.668l1.942-2.124h.178c.182,0,.343.118.399.292.071.175.035.376-.093.516m-1.107-3.044c-.014-.049-.03-.097-.05-.144-.149-.385-.516-.643-.929-.652h-1.314l1.522-1.667c.197-.216.304-.499.302-.791.002-.292-.105-.574-.301-.791-.35-.399-.958-.438-1.356-.087-.031.027-.06.056-.087.087L.303,2.312C.004,2.644-.082,3.116.081,3.531c.105.3.341.536.64.642-.144.297-.158.641-.039.949.135.409.515.687.946.692h.064c-.051-.212-.051-.434,0-.646h-.064c-.182-.001-.343-.119-.399-.292-.071-.175-.034-.376.094-.515l.126-.139h1.903c.024,0,.047.002.07.007.096.018.183.069.245.144.156.187.156.46-.002.646-.066.079-.159.13-.26.144-.017.002-.035.003-.052.004h-.585c-.18.042-.291.223-.249.402.027.116.115.209.229.243h.604c.412-.01.778-.266.928-.649.105-.25.123-.529.051-.79m-3.126-.798h-.179c-.183,0-.344-.118-.4-.292-.07-.175-.033-.375.095-.514l1.815-1.986c.148-.169.405-.185.574-.037.013.011.025.024.037.037.169.191.169.477,0,.668l-1.941,2.124Z"/></svg>