<?xml version="1.0" encoding="UTF-8"?><svg id="Layer_1" xmlns="http://www.w3.org/2000/svg" viewBox="0 0 10.246 10.265"><defs><style>.cls-1{fill:#303030;}</style></defs><path class="cls-1" d="m10.245,4.177c.003-.051-.01-.098-.024-.148-.008-.03,0-.061-.014-.09-.005-.01-.015-.014-.021-.023-.005-.01-.004-.022-.01-.031L7.861.232c-.017-.027-.046-.038-.068-.06-.093-.1-.213-.172-.354-.172H2.807c-.088,0-.172.025-.246.067-.029.016-.047.046-.072.067-.036.031-.078.056-.104.098L.069,3.885c-.006.009-.004.021-.009.031-.005.009-.016.014-.021.024-.014.029-.007.06-.014.091-.013.05-.026.096-.024.147.002.041.016.077.028.116.01.033.007.069.024.1.008.015.025.022.035.036.009.013.008.03.018.042l4.632,5.612c.095.115.236.182.386.182s.291-.066.386-.182l4.633-5.612c.01-.012.009-.029.018-.042.01-.014.026-.021.035-.036.017-.031.014-.067.024-.1.012-.04.026-.075.028-.116Zm-2.807-2.744l1.407,2.219h-2.814l1.407-2.219Zm-.909-.434l-1.407,2.219-1.406-2.219h2.813Zm-3.723.434l1.406,2.219H1.4l1.407-2.219Zm2.315,7.545L1.551,4.653h7.143l-3.571,4.326Z"/></svg>