<?xml version="1.0" encoding="UTF-8"?><svg id="Layer_1" xmlns="http://www.w3.org/2000/svg" viewBox="0 0 7.937 10.265"><defs><style>.cls-1{fill:#303030;}</style></defs><path class="cls-1" d="m6.03,4.407c.639-.409,1.035-1.224,1.035-2.126v-1.281h.871V0H0v1h.871v1.281c0,.903.396,1.718,1.035,2.127l1.133.725-1.133.725h0c-.639.409-1.035,1.224-1.035,2.127v1.281h-.871v1h7.937v-1h-.871v-1.281c0-.903-.396-1.718-1.035-2.127l-1.134-.725,1.134-.725h0Zm-.539-.842l-1.523.974-1.522-.974c-.344-.22-.574-.736-.574-1.285v-1.281h4.194v1.281c0,.548-.23,1.064-.574,1.285Z"/></svg>