<?xml version="1.0" encoding="UTF-8"?><svg id="Layer_1" xmlns="http://www.w3.org/2000/svg" viewBox="0 0 8.521 9.762"><defs><style>.cls-1{fill:#303030;stroke-width:0px;}</style></defs><path class="cls-1" d="m4.012,2.964v1.667h-1.669c-.138,0-.25.112-.25.25s.112.25.25.25h1.668v1.668c0,.138.11.25.249.25.138,0,.25-.112.25-.25v-1.668h1.669c.138,0,.25-.112.25-.25s-.112-.25-.25-.25h-1.668v-1.667c0-.138-.11-.25-.249-.25-.138,0-.25.112-.25.25Z"/><path class="cls-1" d="m8.396,2.349L4.386.034c-.078-.045-.172-.045-.25,0L.125,2.349c-.077.045-.125.128-.125.217v4.631c0,.089.048.172.125.217l4.011,2.315c.039.022.082.033.125.033s.086-.011.125-.033l4.011-2.315c.077-.045.125-.128.125-.217V2.566c0-.089-.048-.172-.125-.217Zm-.375,4.703l-3.761,2.171L.5,7.052V2.71L4.261.54l3.761,2.171v4.342Z"/></svg>