<svg id="Layer_1" data-name="Layer 1" xmlns="http://www.w3.org/2000/svg" viewBox="0 0 606.986 512"><defs><style>.cls-1{fill:#fea048;}</style></defs><path class="cls-1" d="M303.493,331.826a18.966,18.966,0,0,1-18.966-18.966V180.1a18.966,18.966,0,0,1,37.932,0V312.86A18.966,18.966,0,0,1,303.493,331.826Z"/><path class="cls-1" d="M598.956,427.046,362.845,33.531c-26.789-44.665-91.86-44.751-118.7,0L8.032,427.046C-14.3,464.26,12.567,512,56.133,512h494.72c43.574,0,70.427-47.746,48.1-84.954Zm-48.1,47.023H56.134a18.191,18.191,0,0,1-15.575-27.512L276.67,53.042c12.113-20.19,41.52-20.213,53.649,0L566.43,446.557A18.193,18.193,0,0,1,550.853,474.069Z"/><circle class="cls-1" cx="303.493" cy="379.24" r="28.449"/></svg>