<?xml version="1.0" encoding="UTF-8"?><svg id="Layer_1" xmlns="http://www.w3.org/2000/svg" viewBox="0 0 9.765 9.765"><defs><style>.cls-1{fill:#303030;stroke-width:0px;}</style></defs><path class="cls-1" d="m5.254,6.804c-.064,0-.128-.024-.177-.073l-1.671-1.672c-.047-.047-.073-.11-.073-.177s.026-.13.073-.177l1.671-1.67c.098-.098.256-.098.354,0s.098.256,0,.354l-1.495,1.493,1.495,1.495c.098.098.098.256,0,.354-.049.049-.113.073-.177.073Z"/><path class="cls-1" d="m4.882,9.765C2.19,9.765,0,7.574,0,4.883S2.19,0,4.882,0s4.882,2.19,4.882,4.883-2.19,4.882-4.882,4.882ZM4.882.5C2.466.5.5,2.466.5,4.883s1.966,4.382,4.382,4.382,4.382-1.966,4.382-4.382S7.299.5,4.882.5Z"/></svg>