<?xml version="1.0" encoding="UTF-8"?><svg id="Layer_1" xmlns="http://www.w3.org/2000/svg" viewBox="0 0 7.862 9.764"><defs><style>.cls-1{fill:#303030;stroke-width:0px;}</style></defs><path class="cls-1" d="m7.678,1.009L3.997.009c-.043-.012-.088-.012-.131,0L.185,1.009c-.109.029-.185.128-.185.241v3.619c0,1.12.498,2.168,1.365,2.875l2.408,1.963c.046.038.102.057.158.057s.112-.019.158-.057l2.408-1.963c.868-.707,1.365-1.756,1.365-2.875V1.25c0-.113-.076-.212-.185-.241Zm-.315,3.86c0,.969-.431,1.875-1.182,2.488l-2.25,1.834-2.25-1.834c-.751-.612-1.182-1.52-1.182-2.488V1.441l3.431-.933,3.431.933v3.428Z"/><path class="cls-1" d="m3.027,3.635c0,.432.272.762.654.869v1.28c0,.138.112.25.25.25s.25-.112.25-.25v-1.28c.383-.107.654-.437.654-.87,0-.523-.389-.918-.904-.918s-.904.395-.904.919Z"/></svg>