<?xml version="1.0" encoding="UTF-8"?><svg id="Layer_1" xmlns="http://www.w3.org/2000/svg" viewBox="0 0 9.764 9.765"><defs><style>.cls-1{fill:#303030;stroke-width:0px;}</style></defs><path class="cls-1" d="m8.751,6.318v-2.871c.264-.101.454-.353.454-.654,0-.389-.315-.704-.704-.704-.167,0-.314.067-.435.164l-2.5-1.444c.006-.036.021-.068.021-.105,0-.389-.315-.704-.704-.704s-.704.315-.704.704c0,.037.016.069.021.105l-2.5,1.444c-.121-.097-.268-.164-.435-.164-.389,0-.704.315-.704.704,0,.3.19.552.454.654v2.871c-.265.101-.454.353-.454.654,0,.389.315.704.704.704.167,0,.314-.067.435-.164l2.5,1.444c-.006.036-.021.068-.021.105,0,.389.315.704.704.704s.704-.315.704-.704c0-.037-.016-.069-.021-.105l2.501-1.444c.121.097.268.164.435.164.389,0,.704-.315.704-.704,0-.3-.189-.552-.454-.654Zm-.631.077l-.95-.489v-2.055l.896-.517c.057.046.116.087.186.114v2.871c-.048.019-.088.049-.131.077Zm-5.025-2.256l1.537.887v1.775l-1.537-.887v-1.775Zm1.787-1.32l1.537.886-1.537.887-1.536-.887,1.536-.887Zm.25,2.207l1.538-.888v1.775l-1.538.887v-1.775Zm2.685-2.128l-.898.519-1.787-1.031v-1.028c.069-.026.128-.068.185-.113l2.5,1.443c-.006.036-.021.068-.021.106s.016.069.021.105Zm-3.185-1.541v1.028l-1.787,1.031-.899-.519c.006-.036.021-.068.021-.105s-.016-.07-.021-.105l2.5-1.443c.057.046.116.087.185.113Zm-2.933,1.975l.896.517v2.062l-.906.512c-.054-.042-.109-.081-.175-.106v-2.871c.069-.027.129-.068.185-.114Zm.245,3.521l.899-.508,1.789,1.032v1.028c-.069.026-.128.068-.185.113l-2.5-1.443c.006-.036.021-.068.021-.106,0-.042-.017-.077-.024-.117Zm3.188,1.552v-1.028l1.794-1.036.903.465c-.013.054-.033.105-.033.163,0,.037.016.07.021.106l-2.5,1.443c-.057-.046-.116-.087-.185-.113Z"/></svg>