<?xml version="1.0" encoding="UTF-8"?><svg id="_2" xmlns="http://www.w3.org/2000/svg" viewBox="0 0 799.701 799.701"><defs><style>.cls-1{fill:#303030;}</style></defs><path class="cls-1" d="m768.273,244.206c-20.14-47.616-48.969-90.376-85.686-127.093-36.717-36.717-79.476-65.545-127.092-85.685C506.19,10.574,453.824,0,399.851,0s-106.34,10.574-155.644,31.428c-47.616,20.14-90.376,48.968-127.093,85.685-36.717,36.717-65.546,79.477-85.686,127.093C10.574,293.511,0,345.877,0,399.85s10.574,106.339,31.428,155.644c20.14,47.616,48.969,90.376,85.686,127.093,36.717,36.717,79.477,65.546,127.093,85.686,49.305,20.854,101.671,31.428,155.644,31.428s106.339-10.574,155.644-31.428c47.616-20.14,90.375-48.969,127.092-85.686,36.717-36.717,65.546-79.477,85.686-127.093,20.854-49.305,31.428-101.671,31.428-155.644s-10.574-106.339-31.428-155.644Zm2.247,141.191h-149.076c-.957-49.424-6.812-97.301-17.14-141.72h132.09c1.809,3.897,3.577,7.818,5.256,11.789,17.474,41.311,27.162,84.954,28.869,129.931ZM414.304,29.973c19.64,2.878,38.858,11.623,57.302,26.127,23.114,18.175,44.006,44.445,62.097,78.079,13.075,24.309,24.131,51.408,33.012,80.593h-152.411V29.973Zm-86.208,26.127c18.445-14.504,37.663-23.249,57.302-26.127v184.799h-152.411c8.88-29.185,19.936-56.285,33.011-80.593,18.091-33.634,38.984-59.904,62.097-78.079Zm57.302,187.578v141.72h-178.232c.997-49.706,7.127-97.654,17.919-141.72h160.312Zm0,170.626v141.72h-160.312c-10.792-44.066-16.922-92.014-17.919-141.72h178.231Zm0,170.625v184.799c-19.64-2.878-38.858-11.623-57.302-26.127-23.114-18.176-44.006-44.445-62.097-78.079-13.075-24.309-24.131-51.408-33.011-80.593h152.411Zm86.208,158.672c-18.445,14.504-37.663,23.249-57.302,26.127v-184.799h152.411c-8.88,29.185-19.936,56.285-33.012,80.593-18.09,33.634-38.983,59.903-62.097,78.079Zm-57.302-187.578v-141.72h178.231c-.997,49.705-7.127,97.653-17.919,141.72h-160.312Zm0-170.625v-141.72h160.312c10.792,44.066,16.922,92.015,17.919,141.72h-178.231ZM544.235,58.05c44.17,18.683,83.841,45.431,117.913,79.503,23.247,23.248,43.079,49.107,59.272,77.22h-124.598c-9.827-34.246-22.452-66.005-37.663-94.285-17.231-32.034-36.976-58.128-58.503-77.742,14.777,4.169,29.317,9.273,43.579,15.305Zm-406.683,79.503c34.072-34.072,73.744-60.82,117.914-79.503,14.262-6.032,28.802-11.136,43.579-15.305-21.527,19.614-41.273,45.708-58.504,77.743-15.211,28.28-27.836,60.039-37.663,94.285h-124.598c16.193-28.112,36.025-53.972,59.272-77.22Zm-79.503,117.914c1.68-3.971,3.447-7.892,5.256-11.789h132.091c-10.327,44.419-16.183,92.296-17.14,141.72H29.181c1.707-44.978,11.395-88.62,28.868-129.931Zm-28.868,158.837h149.076c.957,49.424,6.812,97.301,17.14,141.72H63.306c-1.809-3.897-3.577-7.818-5.256-11.789-17.473-41.311-27.161-84.953-28.868-129.931Zm226.285,327.347c-44.17-18.682-83.842-45.431-117.914-79.502-23.247-23.248-43.079-49.107-59.272-77.22h124.598c9.828,34.246,22.452,66.006,37.663,94.286,17.231,32.034,36.977,58.128,58.504,77.742-14.777-4.169-29.317-9.273-43.579-15.306Zm406.682-79.502c-34.072,34.071-73.743,60.82-117.913,79.503-14.262,6.032-28.802,11.137-43.579,15.306,21.527-19.614,41.273-45.708,58.503-77.743,15.211-28.28,27.836-60.04,37.663-94.286h124.598c-16.193,28.113-36.024,53.972-59.272,77.22Zm79.502-117.914c-1.679,3.971-3.447,7.892-5.256,11.789h-132.09c10.327-44.419,16.183-92.295,17.14-141.72h149.076c-1.707,44.978-11.395,88.62-28.869,129.931Z"/></svg>