<svg id="Layer_1" data-name="Layer 1" xmlns="http://www.w3.org/2000/svg" viewBox="0 0 200 200"><path d="M197,124.749v.057h.006c-13.367,53.467-67.631,85.528-121.2,72.164A99.959,99.959,0,1,1,124.188,2.994C177.767,16.353,210.369,71.208,197,124.749Z" transform="translate(0 0)" fill="#ffa200" fill-rule="evenodd"/><path d="M143.611,87.2l-.015.006c1.989-13.306-8.143-20.458-22-25.229l4.5-18.032L115.124,41.7l-4.375,17.052c-2.885-.719-5.847-1.4-8.791-2.069l4.406-17.664L95.393,37.012l-4.488,17.3c-2.387-.543-4.285-1.08-7.006-1.646v-.056L68.767,48.834,66.015,60.552s8.354,1.875,7.8,1.981a5.837,5.837,0,0,1,5.113,6.381L73.81,89.446c-7.2,28.726-7.206,29.06-7.206,29.06-.662,1.886-2.9,3.515-5.008,2.394l-.021-.006c.11.159-7.975-1.99-7.975-1.99l-5.445,12.558,14.279,3.559c3.3.666,5.259,1.362,7.813,2.019l-4.541,18.229L76.663,158l4.5-18.036c2.993.812,5.9,1.562,8.75,2.269l-4.445,17.945,10.971,2.806,4.542-18.268c18.71,3.54,32.783,2.112,38.7-14.808,4.772-13.624-.234-21.483-10.082-26.608C136.77,101.652,142.418,96.936,143.611,87.2Zm-25.08,35.447c-3.391,13.34-26.334,5.965-33.772,4.127l6.016-24.151c7.441,2.412,31.293,5.524,27.748,20.018l0,.006Zm3.392-35.637C118.831,99.4,99.737,93.344,93.539,91.56L99,69.656C105.2,71.323,125.714,74.079,121.923,87.007Z" transform="translate(0 0)" fill="#fff" fill-rule="evenodd"/></svg>