<?xml version="1.0" encoding="UTF-8"?><svg id="Layer_1" xmlns="http://www.w3.org/2000/svg" viewBox="0 0 9.765 9.765"><defs><style>.cls-1{fill:#303030;stroke-width:0px;}</style></defs><path class="cls-1" d="m6.639,4.517c.643,0,.645-1,0-1s-.645,1,0,1h0Z"/><path class="cls-1" d="m4.883,4.517c.643,0,.645-1,0-1s-.645,1,0,1h0Z"/><path class="cls-1" d="m3.126,4.517c.643,0,.645-1,0-1s-.645,1,0,1h0Z"/><path class="cls-1" d="m4.883,9.765c-.083,0-.161-.042-.208-.111l-1.085-1.62H.25c-.138,0-.25-.112-.25-.25V.25c0-.138.112-.25.25-.25h9.265c.138,0,.25.112.25.25v7.533c0,.138-.112.25-.25.25h-3.339l-1.085,1.62c-.047.069-.125.111-.208.111ZM.5,7.533h3.224c.083,0,.161.042.208.111l.951,1.421.951-1.421c.047-.069.125-.111.208-.111h3.223V.5H.5v7.033Z"/></svg>