<?xml version="1.0" encoding="UTF-8"?><svg id="Layer_1" xmlns="http://www.w3.org/2000/svg" viewBox="0 0 9.829 9.828"><defs><style>.cls-1{fill:#bebebe;stroke-width:0px;}</style></defs><path class="cls-1" d="m4.465,6.007c.066,0,.13-.026.177-.073l1.658-1.658-.354-.354-1.481,1.481-.582-.582-.354.354.759.759c.047.047.11.073.177.073Z"/><path class="cls-1" d="m9.579,0H.25c-.138,0-.25.112-.25.25v9.328c0,.138.112.25.25.25h9.329c.138,0,.25-.112.25-.25V.25c0-.138-.112-.25-.25-.25Zm-.25,9.328H.5V.5h8.829v8.828Z"/></svg>