<?xml version="1.0" encoding="UTF-8"?><svg id="Layer_1" xmlns="http://www.w3.org/2000/svg" viewBox="0 0 9.686 9.686"><defs><style>.cls-1{fill:#303030;stroke-width:0px;}</style></defs><path class="cls-1" d="m9.436,9.686c-.064,0-.128-.024-.177-.073L.073.427C-.024.329-.024.171.073.073S.329-.024.427.073l9.186,9.186c.098.098.098.256,0,.354-.049.049-.112.073-.177.073Z"/><path class="cls-1" d="m.25,9.686c-.064,0-.128-.024-.177-.073-.098-.098-.098-.256,0-.354L9.259.073c.098-.098.256-.098.354,0s.098.256,0,.354L.427,9.612c-.049.049-.112.073-.177.073Z"/></svg>