<?xml version="1.0" encoding="UTF-8"?><svg id="Layer_1" xmlns="http://www.w3.org/2000/svg" viewBox="0 0 9.736 9.764"><defs><style>.cls-1{fill:#303030;stroke-width:0px;}</style></defs><path class="cls-1" d="m6.94,7.19H.25c-.138,0-.25-.112-.25-.25V.25c0-.138.112-.25.25-.25h6.69c.138,0,.25.112.25.25v6.69c0,.138-.112.25-.25.25Zm-6.44-.5h6.19V.5H.5v6.19Z"/><path class="cls-1" d="m9.486,9.764H2.795c-.138,0-.25-.112-.25-.25v-1.025h.5v.775h6.19V3.073h-.776v-.5h1.026c.138,0,.25.112.25.25v6.69c0,.138-.112.25-.25.25Z"/></svg>