<?xml version="1.0" encoding="UTF-8"?><svg id="Layer_1" xmlns="http://www.w3.org/2000/svg" viewBox="0 0 9.764 9.765"><defs><style>.cls-1{fill:#303030;stroke-width:0px;}</style></defs><path class="cls-1" d="m4.882-.017C2.19-.017,0,2.173,0,4.865s2.19,4.882,4.882,4.882,4.882-2.19,4.882-4.882S7.574-.017,4.882-.017Zm0,9.265C2.466,9.247.5,7.281.5,4.865S2.466.483,4.882.483s4.382,1.966,4.382,4.383-1.966,4.382-4.382,4.382Z"/><path class="cls-1" d="m5.13,4.65v-1.851c.417.052.71.273.86.645l.293-.162c-.202-.489-.638-.763-1.153-.821v-.587h-.307v.587c-.69.046-1.238.502-1.238,1.18,0,.775.573,1.016,1.238,1.251v1.935c-.606-.032-1.003-.306-1.153-.762l-.3.169c.202.561.736.893,1.453.925v.58h.307v-.586c.743-.072,1.264-.548,1.264-1.231,0-.775-.599-1.036-1.264-1.271Zm-.307-.111c-.515-.188-.893-.384-.893-.898,0-.456.358-.802.893-.848v1.746Zm.307,2.274v-1.818c.534.189.912.404.912.926,0,.469-.326.827-.912.893Z"/></svg>