<?xml version="1.0" encoding="UTF-8"?><svg id="Layer_1" xmlns="http://www.w3.org/2000/svg" viewBox="0 0 12.767 9.764"><defs><style>.cls-1{fill:#303030;stroke-width:0px;}</style></defs><path class="cls-1" d="m8.698,6.849c-.064,0-.128-.024-.177-.073l-3.435-3.434c-.098-.098-.098-.256,0-.354s.256-.098.354,0l3.435,3.434c.098.098.098.256,0,.354-.049.049-.112.073-.177.073Z"/><path class="cls-1" d="m5.263,6.849c-.064,0-.128-.024-.177-.073-.098-.098-.098-.256,0-.354l3.435-3.434c.098-.098.256-.098.354,0s.098.256,0,.354l-3.435,3.434c-.049.049-.112.073-.177.073Z"/><path class="cls-1" d="m12.517,9.764H3.252c-.085,0-.164-.043-.21-.114L.04,5.018c-.054-.082-.054-.189,0-.271L3.042.114c.046-.071.125-.114.21-.114h9.265c.138,0,.25.112.25.25v9.264c0,.138-.112.25-.25.25Zm-9.129-.5h8.879V.5H3.388L.548,4.882l2.84,4.382Z"/></svg>