<?xml version="1.0" encoding="UTF-8"?><svg id="Layer_1" xmlns="http://www.w3.org/2000/svg" viewBox="0 0 9.764 9.764"><defs><style>.cls-1{fill:#303030;stroke-width:0px;}</style></defs><path class="cls-1" d="m5.478,6.222h-1.685c-.138,0-.25-.112-.25-.25v-1.686c0-.066.026-.13.073-.177L7.652.073c.098-.098.256-.098.354,0l1.685,1.685c.047.047.073.11.073.177s-.026.13-.073.177l-4.037,4.037c-.047.047-.11.073-.177.073Zm-1.435-.5h1.332l3.787-3.787-1.332-1.331-3.787,3.786v1.332Z"/><path class="cls-1" d="m8.672,9.764H.25c-.138,0-.25-.112-.25-.25V1.092c0-.138.112-.25.25-.25h4.018v.5H.5v7.922h7.922v-3.768h.5v4.018c0,.138-.112.25-.25.25Z"/></svg>