<svg xmlns="http://www.w3.org/2000/svg" viewBox="0 0 24.07 24.069">
  <g id="Group_99" data-name="Group 99" transform="translate(-31.328 0.098)">
    <path id="Path_118" data-name="Path 118" d="M47.976,6.253,40.535,8.537a.858.858,0,0,0-.57.57l-2.284,7.441a.86.86,0,0,0,.822,1.111.823.823,0,0,0,.253-.039l7.44-2.282a.865.865,0,0,0,.57-.57L49.05,7.327a.86.86,0,0,0-1.074-1.074Zm-2.721,7.575L39.8,15.5l1.674-5.456L46.93,8.373Z" fill="#313131"/>
    <path id="Path_119" data-name="Path 119" d="M54.487,7.328a12.036,12.036,0,0,0-21.821-.9l0,.006c-.04.077-.072.157-.11.235q-.259.532-.465,1.088c-.069.184-.139.368-.2.554-.04.127-.073.256-.109.384-.069.247-.132.494-.185.742-.018.087-.036.174-.052.262-.066.343-.118.688-.153,1.033v.012a11.972,11.972,0,0,0,1.241,6.641c.132.263.276.518.427.769l.012.022a11.968,11.968,0,0,0,3.555,3.73c.046.032.092.063.139.093q.393.258.805.484c.062.034.123.071.186.1.313.165.633.319.961.456.107.044.217.079.325.12.216.083.433.164.655.235.165.052.332.1.5.142s.344.091.518.13.361.077.544.109.339.053.509.076c.187.024.373.051.561.067s.362.019.543.026c.165.007.329.024.5.024A12.047,12.047,0,0,0,54.487,7.328Zm-3.83,11.9a10.243,10.243,0,0,1-7.293,3.02c-.157,0-.312-.012-.467-.018-.139-.007-.279-.009-.417-.021-.169-.014-.336-.038-.5-.06-.137-.019-.275-.037-.411-.061-.163-.028-.325-.062-.485-.1-.141-.031-.281-.067-.421-.1s-.3-.081-.448-.128c-.177-.056-.352-.121-.525-.188-.1-.039-.21-.073-.312-.116q-.416-.174-.815-.386c-.06-.031-.117-.066-.176-.1-.229-.126-.454-.259-.673-.4-.044-.028-.086-.057-.129-.086a10.382,10.382,0,0,1-3.042-3.195l-.008-.013c-.132-.218-.254-.44-.369-.665a10.378,10.378,0,0,1-.624-1.52c0-.007-.008-.012-.01-.019a10.262,10.262,0,0,1-.487-3.1c0-.012.008-.023.008-.036,0-.342.017-.682.049-1.019l0-.017c.03-.3.076-.587.13-.876.014-.078.03-.156.046-.234.044-.209.1-.416.155-.621.033-.114.061-.23.1-.344.047-.149.1-.3.158-.442a10.5,10.5,0,0,1,.438-1.024,10.323,10.323,0,0,1,1.932-2.7s.01-.006.014-.01a10.314,10.314,0,0,1,14.586,0,10.237,10.237,0,0,1,3.019,7.289A10.244,10.244,0,0,1,50.657,19.228Z" fill="#313131"/>
    <path id="Path_120" data-name="Path 120" d="M43.36,13.077a1.141,1.141,0,1,0-1.141-1.141A1.141,1.141,0,0,0,43.36,13.077Z" fill="#313131"/>
  </g>
</svg>
