<?xml version="1.0" encoding="UTF-8"?><svg id="Layer_1" xmlns="http://www.w3.org/2000/svg" viewBox="0 0 9.764 9.197"><defs><style>.cls-1{fill:#bebebe;stroke-width:0px;}</style></defs><path class="cls-1" d="m9.764,3.925c0-.759-.617-1.376-1.377-1.376h-1.416c.099-.057.189-.121.263-.195,0,0,0,0,0,0,.261-.261.404-.607.404-.975s-.143-.714-.404-.975c-.537-.537-1.412-.538-1.951,0-.187.189-.312.478-.402.786-.09-.309-.215-.598-.403-.787C3.941-.134,3.067-.134,2.529.403c-.261.261-.404.607-.404.975s.143.715.404.975c0,0,0,0,0,0,.074.073.163.138.263.195h-1.416c-.759,0-1.376.617-1.376,1.376,0,.544.32,1.011.779,1.234v3.44c0,.33.268.598.598.598h7.011c.33,0,.598-.268.598-.598v-3.44c.459-.223.779-.69.779-1.235ZM5.579.698c.188-.188.434-.282.681-.282s.493.094.681.282c.375.375.375.986,0,1.361-.351.347-1.311.46-1.845.484.024-.534.137-1.495.484-1.845Zm-2.756,0c.375-.376.986-.375,1.361,0,.348.351.461,1.312.485,1.846-.534-.024-1.495-.137-1.846-.484-.375-.376-.375-.986,0-1.361ZM.416,3.925c0-.529.431-.96.96-.96h3.298v1.921H1.376c-.529,0-.96-.431-.96-.961Zm.779,4.675v-3.316c.06.008.119.018.182.018h3.298v3.479H1.376c-.1,0-.182-.081-.182-.181Zm7.374,0c0,.1-.081.181-.182.181h-3.297v-3.479h3.297c.062,0,.121-.01.181-.018v3.316Zm-.181-3.714h-3.297v-1.921h3.297c.529,0,.96.431.96.96s-.431.961-.96.961Z"/></svg>