<?xml version="1.0" encoding="UTF-8"?><svg id="Layer_1" xmlns="http://www.w3.org/2000/svg" viewBox="0 0 27 19.777"><defs><style>.cls-1{stroke-width:0px;}</style></defs><path class="cls-1" d="m26.905,9.595c-.158-.218-2.672-3.617-6.433-5.972l2.77-2.77c.195-.195.195-.512,0-.707s-.512-.195-.707,0l-2.952,2.952c-1.817-.998-3.877-1.71-6.083-1.71C6.129,1.389.338,9.26.095,9.595c-.127.175-.127.412,0,.587.158.218,2.672,3.617,6.432,5.972l-2.77,2.77c-.195.195-.195.512,0,.707.098.098.226.146.354.146s.256-.049.354-.146l2.952-2.952c1.817.998,3.877,1.71,6.083,1.71,7.37,0,13.162-7.872,13.405-8.207.126-.175.126-.412,0-.587Zm-25.775.293c1.122-1.42,6.283-7.5,12.37-7.5,1.902,0,3.714.594,5.34,1.453l-2.547,2.547c-.77-.616-1.733-1-2.793-1-2.481,0-4.5,2.019-4.5,4.5,0,1.06.384,2.023,1,2.793l-2.739,2.739c-3.123-1.908-5.425-4.64-6.13-5.532Zm15.87,0c0,1.93-1.57,3.5-3.5,3.5-.785,0-1.502-.269-2.086-.707l4.88-4.88c.438.584.707,1.302.707,2.086Zm-7,0c0-1.93,1.57-3.5,3.5-3.5.785,0,1.502.269,2.086.707l-4.88,4.88c-.438-.584-.707-1.302-.707-2.086Zm3.5,7.5c-1.902,0-3.714-.594-5.34-1.453l2.547-2.547c.77.616,1.733,1,2.793,1,2.481,0,4.5-2.019,4.5-4.5,0-1.06-.384-2.023-1-2.793l2.739-2.739c3.123,1.908,5.425,4.64,6.13,5.532-1.121,1.42-6.282,7.5-12.369,7.5Z"/></svg>