<?xml version="1.0" encoding="UTF-8"?><svg id="Layer_1" xmlns="http://www.w3.org/2000/svg" viewBox="0 0 138.248 91.787"><defs><style>.cls-1{fill:#303030;}</style></defs><path id="Path_339" class="cls-1" d="m130.815,0l-7.06,22.792-36.039,2.217c-2.37.15-4.216,2.116-4.216,4.491v22.475l-4.583,5.5h-19.585l-4.582-5.5v-22.475c-.002-2.376-1.85-4.341-4.221-4.488l-36.037-2.22L7.431,0,0,1.858v36.1c0,1.58,1.21,2.897,2.785,3.029l35.49,2.987v40.992l9.043,6.821,10.528-15.487h22.554l10.529,15.487,9.043-6.821v-40.992l35.49-2.987c1.575-.132,2.786-1.449,2.786-3.029V1.858l-7.433-1.858Z"/></svg>