<?xml version="1.0" encoding="UTF-8"?><svg id="Layer_1" xmlns="http://www.w3.org/2000/svg" viewBox="0 0 9.765 9.765"><defs><style>.cls-1{fill:#303030;stroke-width:0px;}</style></defs><path class="cls-1" d="m4.882,9.765C2.19,9.765,0,7.574,0,4.883S2.19,0,4.882,0s4.882,2.19,4.882,4.883-2.19,4.882-4.882,4.882ZM4.882.5C2.466.5.5,2.466.5,4.883s1.966,4.382,4.382,4.382,4.382-1.966,4.382-4.382S7.299.5,4.882.5Z"/><path class="cls-1" d="m4.882,6.797c-.138,0-.25-.112-.25-.25v-2.114c0-.138.112-.25.25-.25s.25.112.25.25v2.114c0,.138-.112.25-.25.25Z"/><path class="cls-1" d="m4.882,3.6c.463,0,.463-.719,0-.719s-.463.719,0,.719h0Z"/></svg>