<?xml version="1.0" encoding="UTF-8"?><svg id="Layer_1" xmlns="http://www.w3.org/2000/svg" viewBox="0 0 9.765 9.765"><defs><style>.cls-1{fill:#303030;stroke-width:0px;}</style></defs><path class="cls-1" d="m9.515,3.686h-3.639V.25c0-.138-.112-.25-.25-.25H.25c-.138,0-.25.112-.25.25v5.376c0,.138.112.25.25.25h3.436v3.639c0,.138.112.25.25.25h5.579c.138,0,.25-.112.25-.25V3.936c0-.138-.112-.25-.25-.25ZM.5,5.376V.5h4.876v3.186h-1.19v-1.193c0-.688-.56-1.247-1.248-1.247s-1.247.56-1.247,1.247v2.139h.5v-1.044h1.495v1.789H.5Zm3.186-2.289h-1.495v-.595c0-.412.335-.747.747-.747s.748.335.748.747v.595Zm5.579,6.178h-5.079v-5.079h5.079v5.079Z"/><path class="cls-1" d="m6.721,8.047c.371.271.807.426,1.27.426h.25v-.5h-.25c-.315,0-.609-.111-.875-.28.38-.431.622-1.011.675-1.653h.45v-.5h-1.266v-.562h-.5v.562h-.337s-.5,0-.5,0h0s-.428,0-.428,0v.5h.449c.021.265.065.525.154.771.124.342.307.64.528.888-.263.17-.56.275-.881.275h-.25v.5h.25c.465,0,.895-.159,1.261-.426Zm-.437-1.407c-.069-.191-.105-.394-.125-.601h1.132c-.051.519-.251.983-.556,1.326-.185-.205-.348-.439-.452-.726Z"/></svg>