<?xml version="1.0" encoding="UTF-8"?><svg id="Layer_1" xmlns="http://www.w3.org/2000/svg" viewBox="0 0 9.735 9.736"><defs><style>.cls-1{fill:#303030;stroke-width:0px;}</style></defs><path class="cls-1" d="m7.638,3.374l1.244,1.245H2.92v.5h5.962l-1.244,1.243c-.049.049-.073.113-.073.177s.024.128.073.177c.098.098.256.098.354,0l1.671-1.67c.047-.047.073-.11.073-.177s-.026-.13-.073-.177l-1.671-1.672c-.098-.098-.256-.098-.354,0s-.098.256,0,.354Z"/><path class="cls-1" d="m5.178,9.486v-2.03h-.5v1.78H.5V.5h4.178v1.78h.5V.25c0-.138-.112-.25-.25-.25H.25c-.138,0-.25.112-.25.25v9.236c0,.138.112.25.25.25h4.678c.138,0,.25-.112.25-.25Z"/></svg>