<?xml version="1.0" encoding="UTF-8"?><svg id="Layer_1" xmlns="http://www.w3.org/2000/svg" viewBox="0 0 10.265 10.265"><defs><style>.cls-1{fill:#ffffff;}</style></defs><path class="cls-1" d="m3.94,4.44H.5c-.276,0-.5-.224-.5-.5V.5C0,.224.224,0,.5,0h3.44c.276,0,.5.224.5.5v3.44c0,.276-.224.5-.5.5Zm-2.94-1h2.44V1H1v2.44Z"/><path class="cls-1" d="m3.94,10.265H.5c-.276,0-.5-.224-.5-.5v-3.44c0-.276.224-.5.5-.5h3.44c.276,0,.5.224.5.5v3.44c0,.276-.224.5-.5.5Zm-2.94-1h2.44v-2.44H1v2.44Z"/><path class="cls-1" d="m9.765,4.44h-3.44c-.276,0-.5-.224-.5-.5V.5c0-.276.224-.5.5-.5h3.44c.276,0,.5.224.5.5v3.44c0,.276-.224.5-.5.5Zm-2.94-1h2.44V1h-2.44v2.44Z"/><path class="cls-1" d="m9.765,10.265h-3.44c-.276,0-.5-.224-.5-.5v-3.44c0-.276.224-.5.5-.5h3.44c.276,0,.5.224.5.5v3.44c0,.276-.224.5-.5.5Zm-2.94-1h2.44v-2.44h-2.44v2.44Z"/></svg>