<?xml version="1.0" encoding="UTF-8"?><svg id="Layer_1" xmlns="http://www.w3.org/2000/svg" viewBox="0 0 9.767 9.764"><defs><style>.cls-1{fill:#303030;stroke-width:0px;}</style></defs><path class="cls-1" d="m8.283,4.867v-1.468c0-1.874-1.525-3.399-3.399-3.399S1.483,1.525,1.483,3.399v1.468c-.838.122-1.483.846-1.483,1.717v1.321c0,.138.112.25.25.25h9.267c.138,0,.25-.112.25-.25v-1.321c0-.871-.646-1.595-1.483-1.717Zm.983,2.788H.5v-1.071c0-.681.554-1.234,1.233-1.234.138,0,.25-.112.25-.25v-1.7C1.983,1.801,3.284.5,4.884.5s2.899,1.301,2.899,2.899v1.7c0,.138.112.25.25.25.68,0,1.233.554,1.233,1.234v1.071Z"/><path class="cls-1" d="m5.55,8.598c0,.367-.299.666-.667.666s-.666-.299-.666-.666v-.25h-.5v.25c0,.643.523,1.166,1.166,1.166s1.167-.523,1.167-1.166v-.25h-.5v.25Z"/></svg>