<?xml version="1.0" encoding="UTF-8"?><svg id="Layer_1" xmlns="http://www.w3.org/2000/svg" viewBox="0 0 9.768 9.767"><defs><style>.cls-1{fill:#303030;stroke-width:0px;}</style></defs><path class="cls-1" d="m.25,9.767c-.064,0-.128-.024-.177-.073-.098-.098-.098-.256,0-.354L9.341.073c.098-.098.256-.098.354,0s.098.256,0,.354l-1.677,1.677c.177.422.267.857.267,1.296v1.468c.838.122,1.483.846,1.483,1.717v1.321c0,.138-.112.25-.25.25H1.965l-1.538,1.538c-.049.049-.112.073-.177.073Zm2.215-2.111h6.803v-1.071c0-.681-.554-1.234-1.233-1.234-.138,0-.25-.112-.25-.25v-1.7c0-.306-.052-.609-.154-.908L2.465,7.655Zm2.419,2.108c-.643,0-1.166-.523-1.166-1.167,0-.138.112-.25.25-.25s.25.112.25.25c0,.368.299.667.666.667s.667-.299.667-.667c0-.138.112-.25.25-.25s.25.112.25.25c0,.644-.523,1.167-1.167,1.167ZM.25,7.115c-.138,0-.25-.112-.25-.25v-.281c0-.871.646-1.595,1.484-1.717v-1.468C1.484,1.525,3.01,0,4.884,0c.582,0,1.147.154,1.68.459.12.068.161.221.093.341s-.222.161-.341.093c-.456-.261-.938-.393-1.432-.393C3.285.5,1.984,1.801,1.984,3.399v1.7c0,.138-.112.25-.25.25-.681,0-1.234.554-1.234,1.234v.281c0,.138-.112.25-.25.25Z"/></svg>