<?xml version="1.0" encoding="UTF-8"?><svg id="Layer_1" xmlns="http://www.w3.org/2000/svg" viewBox="0 0 11.7 10.265"><defs><style>.cls-1{fill:#f7941d;}.cls-2{fill:#303030;}</style></defs><path class="cls-1" d="m.5,1h8.174c.276,0,.5-.224.5-.5s-.224-.5-.5-.5H.5C.224,0,0,.224,0,.5s.224.5.5.5Z"/><path class="cls-2" d="m11.2,3.681h-.837v-1.449c0-.276-.224-.5-.5-.5H.5c-.276,0-.5.224-.5.5v7.533c0,.276.224.5.5.5h9.362c.276,0,.5-.224.5-.5v-1.449h.837c.276,0,.5-.224.5-.5v-3.635c0-.276-.224-.5-.5-.5Zm-1.837,5.584H1V2.731h8.362v.949h-.726c-1.278,0-2.317,1.04-2.317,2.317s1.04,2.317,2.317,2.317h.726v.949Zm1.337-1.949h-2.063c-.727,0-1.317-.591-1.317-1.317s.591-1.317,1.317-1.317h2.063v2.635Z"/><path class="cls-2" d="m9.009,6.498c.643,0,.645-1,0-1s-.645,1,0,1Z"/></svg>