<svg id="Layer_1" data-name="Layer 1" xmlns="http://www.w3.org/2000/svg" viewBox="0 0 512 512"><defs><style>.cls-1{fill:#ffff;}</style></defs><path class="cls-1" d="M369.164,174.77a20,20,0,0,1,0,28.285L234.992,337.23a20,20,0,0,1-28.285,0l-63.871-63.875a20,20,0,0,1,28.281-28.281l49.731,49.731L340.879,174.77A20,20,0,0,1,369.164,174.77ZM512,256c0,141.5-114.516,256-256,256C114.5,512,0,397.484,0,256,0,114.5,114.516,0,256,0,397.5,0,512,114.516,512,256Zm-40,0A216,216,0,1,0,256,472,215.88,215.88,0,0,0,472,256Z"/></svg>