<?xml version="1.0" encoding="UTF-8"?><svg id="Layer_1" xmlns="http://www.w3.org/2000/svg" viewBox="0 0 24 24"><defs><style>.cls-1{fill:#303030;stroke-width:0px;}</style></defs><path id="Path_350" class="cls-1" d="m12,0C5.373,0,0,5.373,0,12s5.373,12,12,12,12-5.373,12-12S18.627,0,12,0m0,.95c6.098-.005,11.045,4.934,11.051,11.031.002,2.59-.906,5.098-2.566,7.086-4.279-4.686-11.547-5.016-16.233-.736-.256.234-.502.48-.736.736C-.392,14.386.235,7.423,4.915,3.516c1.988-1.659,4.495-2.568,7.085-2.566m0,22.1c-2.948.001-5.773-1.18-7.844-3.278,3.894-4.332,10.564-4.687,14.896-.793.278.25.543.515.793.793-2.071,2.098-4.897,3.279-7.845,3.277m0-9.592c2.553,0,4.622-2.07,4.621-4.623,0-2.553-2.07-4.622-4.623-4.621-2.552,0-4.62,2.069-4.621,4.621,0,2.553,2.068,4.622,4.621,4.623h.002m0-8.3c2.029,0,3.674,1.645,3.674,3.674,0,2.029-1.645,3.674-3.674,3.674-2.028,0-3.672-1.643-3.674-3.671-.002-2.029,1.642-3.675,3.671-3.677,0,0,.002,0,.003,0"/></svg>