<?xml version="1.0" encoding="utf-8"?>
<!-- Generator: Adobe Illustrator 28.0.0, SVG Export Plug-In . SVG Version: 6.00 Build 0)  -->
<svg version="1.1" id="Layer_1" xmlns="http://www.w3.org/2000/svg" xmlns:xlink="http://www.w3.org/1999/xlink" x="0px" y="0px"
	 viewBox="0 0 18 18" style="enable-background:new 0 0 18 18;" xml:space="preserve">
<style type="text/css">
	.st0{fill:#BEBEBE;}
</style>
<g>
	<g>
		<g id="Group_304">
			<path id="Path_350" class="st0" d="M9,0C4,0,0,4,0,9s4,9,9,9s9-4,9-9S14,0,9,0 M9,0.7c4.6,0,8.3,3.7,8.3,8.3
				c0,1.9-0.7,3.8-1.9,5.3c-3.2-3.5-8.7-3.8-12.2-0.6c-0.2,0.2-0.4,0.4-0.6,0.6c-2.9-3.5-2.5-8.7,1-11.7C5.2,1.4,7.1,0.7,9,0.7
				 M9,17.3c-2.2,0-4.3-0.9-5.9-2.5c2.9-3.2,7.9-3.5,11.2-0.6c0.2,0.2,0.4,0.4,0.6,0.6C13.3,16.4,11.2,17.3,9,17.3 M9,10.1
				c1.9,0,3.5-1.6,3.5-3.5c0-1.9-1.6-3.5-3.5-3.5S5.5,4.7,5.5,6.6C5.5,8.5,7.1,10.1,9,10.1L9,10.1 M9,3.9c1.5,0,2.8,1.2,2.8,2.8
				S10.5,9.4,9,9.4c-1.5,0-2.8-1.2-2.8-2.8C6.2,5.1,7.5,3.9,9,3.9C9,3.9,9,3.9,9,3.9"/>
		</g>
	</g>
</g>
</svg>
