<?xml version="1.0" encoding="UTF-8"?><svg id="Layer_1" xmlns="http://www.w3.org/2000/svg" viewBox="0 0 9.764 9.765"><defs><style>.cls-1{fill:#303030;stroke-width:0px;}</style></defs><path class="cls-1" d="m3.69,3.94H.25c-.138,0-.25-.112-.25-.25V.25c0-.138.112-.25.25-.25h3.44c.138,0,.25.112.25.25v3.44c0,.138-.112.25-.25.25Zm-3.19-.5h2.94V.5H.5v2.94Zm3.19,6.324H.25c-.138,0-.25-.112-.25-.25v-3.44c0-.138.112-.25.25-.25h3.44c.138,0,.25.112.25.25v3.44c0,.138-.112.25-.25.25Zm-3.19-.5h2.94v-2.94H.5v2.94ZM9.514,3.94h-3.44c-.138,0-.25-.112-.25-.25V.25c0-.138.112-.25.25-.25h3.44c.138,0,.25.112.25.25v3.44c0,.138-.112.25-.25.25Zm-3.19-.5h2.94V.5h-2.94v2.94Zm3.19,6.324h-3.44c-.138,0-.25-.112-.25-.25v-3.44c0-.138.112-.25.25-.25h3.44c.138,0,.25.112.25.25v3.44c0,.138-.112.25-.25.25ZM2.514,1.97c0-.3-.244-.544-.544-.544s-.544.244-.544.544.244.544.544.544.544-.244.544-.544Zm5.824,0c0-.3-.244-.544-.544-.544s-.544.244-.544.544.244.544.544.544.544-.244.544-.544ZM2.514,7.794c0-.3-.244-.544-.544-.544s-.544.244-.544.544.244.544.544.544.544-.244.544-.544Zm5.824,0c0-.3-.244-.544-.544-.544s-.544.244-.544.544.244.544.544.544.544-.244.544-.544Z"/></svg>