<?xml version="1.0" encoding="UTF-8"?><svg id="Layer_1" xmlns="http://www.w3.org/2000/svg" viewBox="0 0 10.264 10.265"><defs><style>.cls-1{fill:#303030;}</style></defs><path class="cls-1" d="m9.764,4.633c-.276,0-.5.224-.5.5,0,2.278-1.854,4.132-4.132,4.132S1,7.411,1,5.133,2.854,1,5.132,1c1.003,0,1.958.368,2.701,1.012h-.893c-.276,0-.5.223-.5.499s.224.5.5.5h2.012c.013,0,.025-.006.038-.007.038-.003.074-.01.111-.022.029-.009.055-.021.081-.035.016-.009.035-.011.051-.022.014-.01.021-.024.034-.035.012-.01.027-.015.039-.026.013-.013.019-.031.03-.045.02-.025.037-.049.051-.077.017-.031.028-.062.038-.096.008-.027.013-.053.016-.081.002-.018.011-.035.011-.054V.5c0-.276-.224-.5-.5-.5s-.5.224-.5.5v.729c-.918-.782-2.089-1.229-3.32-1.229C2.302,0,0,2.303,0,5.133s2.302,5.132,5.132,5.132,5.132-2.302,5.132-5.132c0-.276-.224-.5-.5-.5Z"/></svg>