<svg id="Layer_1" data-name="Layer 1" xmlns="http://www.w3.org/2000/svg" viewBox="0 0 200 200"><path d="M197,124.749v.057h.006c-13.367,53.467-67.631,85.528-121.2,72.164A99.959,99.959,0,1,1,124.188,2.994C177.767,16.353,210.369,71.208,197,124.749Z" transform="translate(0 0)" fill="#ffa200" fill-rule="evenodd"/><path d="M108.718,77.284q-19.9-7.929-39.8-15.838c-.854-.339-1.03-.637-.663-1.508q1.862-4.421,3.553-8.912c.308-.813.621-.87,1.378-.567q30.3,12.112,60.618,24.178c6.444,2.568,12.883,5.148,19.338,7.688.723.284.886.539.573,1.292q-1.884,4.521-3.628,9.1c-.289.758-.574.846-1.306.553Q128.761,85.253,108.718,77.284Z" transform="translate(0 0)" fill="#fff"/><path d="M97.427,104.838q-19.937-7.945-39.88-15.871c-.861-.341-1.011-.643-.65-1.5,1.253-2.978,2.439-5.985,3.593-9,.275-.718.542-.792,1.236-.515q40,15.975,80.027,31.893c.737.293.881.551.571,1.3q-1.878,4.522-3.626,9.1c-.289.758-.576.844-1.311.55Q117.417,112.784,97.427,104.838Z" transform="translate(0 0)" fill="#fff"/><path d="M91.236,121.423q19.941,7.947,39.888,15.876c.81.32.989.585.633,1.429q-1.884,4.466-3.591,9c-.3.789-.606.8-1.3.525q-40.012-15.975-80.046-31.9c-.788-.314-.8-.626-.515-1.315,1.232-2.988,2.44-5.987,3.585-9.009.308-.814.628-.866,1.382-.564Q71.242,113.475,91.236,121.423Z" transform="translate(0 0)" fill="#fff"/><path d="M116.6,42.865c1.108-2.782,2.235-5.558,3.312-8.352.238-.617.478-.714,1.089-.463q4.624,1.9,9.285,3.7c.639.248.8.49.525,1.165q-3.346,8.283-6.617,16.6c-.249.632-.513.706-1.115.46q-4.672-1.91-9.379-3.738c-.59-.228-.672-.46-.438-1.031C114.4,48.435,115.492,45.647,116.6,42.865Z" transform="translate(0 0)" fill="#fff"/><path d="M72.786,152.8c1.1-2.752,2.216-5.5,3.274-8.261.255-.668.508-.759,1.16-.491q4.621,1.905,9.287,3.7c.617.239.739.48.487,1.105q-3.342,8.288-6.615,16.6c-.272.694-.562.725-1.182.471q-4.628-1.893-9.29-3.7c-.637-.245-.707-.491-.461-1.091C70.585,158.373,71.677,155.583,72.786,152.8Z" transform="translate(0 0)" fill="#fff"/></svg>