<?xml version="1.0" encoding="UTF-8"?><svg id="Layer_1" xmlns="http://www.w3.org/2000/svg" viewBox="0 0 9.764 9.764"><defs><style>.cls-1{fill:#303030;stroke-width:0px;}</style></defs><path class="cls-1" d="m.5,2.939h-.5V.25c0-.138.112-.25.25-.25h2.689v.5H.5v2.439Z"/><path class="cls-1" d="m2.939,9.764H.25c-.138,0-.25-.112-.25-.25v-2.689h.5v2.439h2.439v.5Z"/><path class="cls-1" d="m9.764,2.939h-.5V.5h-2.44v-.5h2.69c.138,0,.25.112.25.25v2.689Z"/><path class="cls-1" d="m9.514,9.764h-2.69v-.5h2.44v-2.439h.5v2.689c0,.138-.112.25-.25.25Z"/><path class="cls-1" d="m6.897,5.132H2.867c-.138,0-.25-.112-.25-.25s.112-.25.25-.25h4.03c.138,0,.25.112.25.25s-.112.25-.25.25Z"/></svg>