<?xml version="1.0" encoding="UTF-8"?><svg id="Layer_1" xmlns="http://www.w3.org/2000/svg" viewBox="0 0 10.361 10.265"><defs><style>.cls-1{fill:#303030;}</style></defs><rect class="cls-1" x="8.438" y=".813" width="1.923" height="1"/><rect class="cls-1" x=".097" y=".813" width="5.714" height="1"/><rect class="cls-1" x="5.369" y="4.606" width="4.992" height="1"/><rect class="cls-1" x="7.495" y="8.451" width="2.866" height="1"/><rect class="cls-1" y="8.451" width="4.867" height="1"/><rect class="cls-1" y="4.606" width="2.741" height="1"/><path class="cls-1" d="m6.124,2.627c-.725,0-1.313-.589-1.313-1.313s.589-1.313,1.313-1.313,1.313.589,1.313,1.313-.589,1.313-1.313,1.313Zm0-1.627c-.173,0-.313.141-.313.313s.141.313.313.313.313-.141.313-.313-.141-.313-.313-.313Z"/><path class="cls-1" d="m3.055,6.445c-.725,0-1.313-.589-1.313-1.313s.589-1.312,1.313-1.312,1.313.589,1.313,1.312-.589,1.313-1.313,1.313Zm0-1.626c-.173,0-.313.141-.313.312,0,.173.141.313.313.313s.313-.141.313-.313c0-.172-.141-.312-.313-.312Z"/><path class="cls-1" d="m5.181,10.265c-.725,0-1.313-.589-1.313-1.313s.589-1.313,1.313-1.313,1.313.589,1.313,1.313-.589,1.313-1.313,1.313Zm0-1.627c-.173,0-.313.141-.313.313s.141.313.313.313.313-.141.313-.313-.141-.313-.313-.313Z"/></svg>