<?xml version="1.0" encoding="UTF-8"?><svg id="Layer_1" xmlns="http://www.w3.org/2000/svg" viewBox="0 0 9.736 9.735"><defs><style>.cls-1{fill:#303030;stroke-width:0px;}</style></defs><path class="cls-1" d="m3.374,2.098l1.245-1.244v5.962h.5V.854l1.243,1.244c.049.049.113.073.177.073s.128-.024.177-.073c.098-.098.098-.256,0-.354L5.045.073c-.047-.047-.11-.073-.177-.073s-.13.026-.177.073l-1.672,1.671c-.098.098-.098.256,0,.354s.256.098.354,0Z"/><path class="cls-1" d="m9.486,4.558h-2.03v.5h1.78v4.178H.5v-4.178h1.78v-.5H.25c-.138,0-.25.112-.25.25v4.678c0,.138.112.25.25.25h9.236c.138,0,.25-.112.25-.25v-4.678c0-.138-.112-.25-.25-.25Z"/></svg>