<?xml version="1.0" encoding="UTF-8"?><svg id="Layer_1" xmlns="http://www.w3.org/2000/svg" viewBox="0 0 9.764 9.821"><defs><style>.cls-1{fill:#303030;stroke-width:0px;}</style></defs><path class="cls-1" d="m9.719,4.438c-.228-2.481-2.297-4.438-4.837-4.438S.273,1.957.045,4.439c-.017.073-.045.143-.045.221v1.159c0,.564.46,1.024,1.025,1.024s1.024-.46,1.024-1.024v-1.159c0-.565-.459-1.025-1.024-1.025-.122,0-.235.03-.344.07C1.199,1.862,2.876.5,4.882.5s3.682,1.362,4.201,3.204c-.108-.039-.222-.07-.343-.07-.565,0-1.025.46-1.025,1.025v1.159c0,.564.46,1.024,1.025,1.024.094,0,.178-.03.265-.054-.408.839-1.261,1.423-2.255,1.423h-.535c-.118-.63-.67-1.108-1.333-1.108-.75,0-1.359.609-1.359,1.358s.609,1.358,1.359,1.358c.663,0,1.215-.479,1.333-1.108h.535c1.58,0,2.865-1.225,2.99-2.774.005-.041.024-.077.024-.12v-1.159c0-.079-.028-.148-.045-.222Zm-8.694-.304c.289,0,.524.235.524.525v1.159c0,.289-.235.524-.524.524s-.525-.235-.525-.524v-.938c0-.147.029-.286.043-.429.081-.187.266-.318.482-.318Zm3.857,5.187c-.474,0-.859-.385-.859-.858s.385-.858.859-.858.858.385.858.858-.385.858-.858.858Zm3.857-2.978c-.29,0-.525-.235-.525-.524v-1.159c0-.29.235-.525.525-.525.215,0,.4.131.481.318.014.143.043.282.043.429v.817c0,.082-.017.16-.024.24-.056.23-.254.404-.5.404Z"/></svg>