<?xml version="1.0" encoding="UTF-8"?><svg id="Layer_1" xmlns="http://www.w3.org/2000/svg" viewBox="0 0 9.764 9.765"><defs><style>.cls-1{fill:#303030;stroke-width:0px;}</style></defs><path class="cls-1" d="m4.882,0C2.19,0,0,2.19,0,4.883s2.19,4.882,4.882,4.882,4.882-2.19,4.882-4.882S7.574,0,4.882,0Zm0,9.265C2.466,9.265.5,7.299.5,4.883S2.466.5,4.882.5s4.382,1.966,4.382,4.383-1.966,4.382-4.382,4.382Z"/><path class="cls-1" d="m7.92,4.007l-1.497-1.496c-.099-.099-.257-.097-.354,0-.098.098-.098.256,0,.354l1.07,1.069h-3.843c-.138,0-.25.112-.25.25s.112.25.25.25h4.447c.102,0,.192-.061.231-.154.038-.094.017-.201-.055-.272Z"/><path class="cls-1" d="m6.468,5.331H2.021c-.101,0-.192.061-.231.154s-.017.201.054.272l1.497,1.496c.049.049.113.073.177.073s.128-.024.177-.073c.098-.098.098-.256,0-.354l-1.07-1.069h3.844c.138,0,.25-.112.25-.25s-.112-.25-.25-.25Z"/></svg>