<?xml version="1.0" encoding="UTF-8"?><svg id="Layer_1" xmlns="http://www.w3.org/2000/svg" viewBox="0 0 9.764 9.765"><defs><style>.cls-1{fill:#303030;stroke-width:0px;}</style></defs><path class="cls-1" d="m9.514,0H.25c-.138,0-.25.112-.25.25v9.265c0,.138.112.25.25.25h9.264c.138,0,.25-.112.25-.25V.25c0-.138-.112-.25-.25-.25ZM.5.5h8.764v4.948l-2.088-2.088c-.098-.098-.256-.098-.354,0l-2.327,2.326-.595-.595c-.098-.098-.256-.098-.354,0L.918,7.721h-.418V.5Zm0,8.765v-1.044h.522c.066,0,.13-.026.177-.073l2.525-2.525,2.702,2.702.354-.354-1.93-1.93,2.15-2.15,2.265,2.265v3.109H.5Z"/><path class="cls-1" d="m2.759,3.974c.67,0,1.215-.545,1.215-1.215s-.545-1.215-1.215-1.215-1.215.545-1.215,1.215.545,1.215,1.215,1.215Zm0-1.93c.395,0,.715.32.715.715s-.321.715-.715.715-.715-.32-.715-.715.321-.715.715-.715Z"/></svg>