<?xml version="1.0" encoding="UTF-8"?><svg id="Layer_1" xmlns="http://www.w3.org/2000/svg" viewBox="0 0 9.765 9.764"><defs><style>.cls-1{fill:#303030;stroke-width:0px;}</style></defs><path class="cls-1" d="m.5,2.939h-.5V.25c0-.138.112-.25.25-.25h2.689v.5H.5v2.439Z"/><path class="cls-1" d="m2.939,9.764H.25c-.138,0-.25-.112-.25-.25v-2.689h.5v2.439h2.439v.5Z"/><path class="cls-1" d="m9.765,2.939h-.5V.5h-2.44v-.5h2.69c.138,0,.25.112.25.25v2.689Z"/><path class="cls-1" d="m9.515,9.764h-2.69v-.5h2.44v-2.439h.5v2.689c0,.138-.112.25-.25.25Z"/><path class="cls-1" d="m4.882,8.679c-.038,0-.076-.009-.112-.026-.875-.438-1.319-1.104-1.319-1.979v-2.974c0-.789.643-1.432,1.432-1.432s1.433.643,1.433,1.432v2.383c0,.255.086.341.341.341s.342-.086.342-.341v-2.639c0-.234-.052-.459-.155-.668-.391-.802-1.031-1.19-1.96-1.19s-1.569.389-1.96,1.189c-.101.207-.154.438-.154.669v3.212c0,.138-.112.25-.25.25s-.25-.112-.25-.25v-3.212c0-.306.071-.613.205-.888.476-.976,1.287-1.471,2.409-1.471h0c1.123,0,1.934.495,2.409,1.471.135.273.206.581.206.888v2.639c0,.534-.307.841-.842.841s-.841-.307-.841-.841v-2.383c0-.514-.418-.932-.933-.932s-.932.418-.932.932v2.974c0,.68.342,1.181,1.044,1.532.123.062.173.212.111.336-.044.087-.132.138-.224.138Z"/><path class="cls-1" d="m6.655,8.087c-1.324,0-2.023-.693-2.023-2.005v-1.883c0-.138.112-.25.25-.25s.25.112.25.25v1.883c0,1.026.484,1.505,1.523,1.505.138,0,.25.112.25.25s-.112.25-.25.25Z"/></svg>