<svg id="livetype" xmlns="http://www.w3.org/2000/svg" viewBox="0 0 37.861 52.232"><defs><style>.cls-1{fill:#eaeaea;fill-rule:evenodd;}</style></defs><path class="cls-1" d="M32.6,20.306h-.008V13.551a13.811,13.811,0,0,0-.082-1.388c-.014-.128-.043-.25-.06-.377-.045-.328-.09-.656-.158-.976-.016-.077-.042-.151-.06-.227-.084-.367-.176-.73-.289-1.084v0A13.668,13.668,0,0,0,19.048,0c-.04,0-.078.006-.118.006S18.853,0,18.813,0A13.667,13.667,0,0,0,5.918,9.5v0c-.113.354-.205.717-.289,1.084-.018.076-.044.15-.06.227-.068.32-.113.648-.158.976-.018.127-.046.249-.06.377a13.811,13.811,0,0,0-.082,1.388v6.755H5.26A18.849,18.849,0,0,0,15.769,51.971l.09.015q.741.12,1.49.181c.188.016.375.031.563.042.339.017.678.024,1.018.023s.68-.006,1.019-.023c.187-.011.375-.026.563-.042q.75-.062,1.49-.181l.089-.015A18.85,18.85,0,0,0,32.6,20.306ZM17.45,37.093v-2.4a3.553,3.553,0,0,1-1.587-4.727,3.414,3.414,0,0,1,6.134,0,3.552,3.552,0,0,1-1.586,4.727v2.4a1.483,1.483,0,1,1-2.961,0Zm3.64-22.451c-.467-.052-.932-.087-1.4-.1-.253-.012-.506-.016-.761-.017s-.507,0-.761.017c-.466.017-.931.052-1.4.1l-.12.015a18.769,18.769,0,0,0-6.357,1.911V13.633c0-.028.008-.054.008-.082a8.683,8.683,0,0,1,6.946-8.374c.073-.014.148-.023.221-.036.2-.034.4-.066.6-.086.124-.012.249-.016.374-.023.161-.009.322-.019.485-.019s.325.01.486.019c.125.007.25.011.373.023.2.02.4.052.6.086.073.013.148.022.22.036a8.682,8.682,0,0,1,6.946,8.374c0,.028.008.054.008.082v2.935a18.756,18.756,0,0,0-6.357-1.911Z"/></svg>
