<?xml version="1.0" encoding="UTF-8"?><svg id="Layer_1" xmlns="http://www.w3.org/2000/svg" viewBox="0 0 22.951 20.005"><defs><style>.cls-1{fill:#bebebe;stroke-width:0px;}</style></defs><path class="cls-1" d="m22.95,5.419c0-.276-.224-.5-.5-.5h-2.244V.5C20.206.224,19.982,0,19.706,0H.5C.224,0,0,.224,0,.5v19.005c0,.276.224.5.5.5h19.206c.276,0,.5-.224.5-.5v-4.419h2.245c.133,0,.26-.053.354-.146s.146-.221.146-.354V5.419Zm-3.744,13.586H1V1h18.206v3.919h-3.395c-1.568,0-2.847,1.277-2.849,2.846v4.473c0,1.569,1.279,2.848,2.849,2.849h3.395v3.919Zm-3.395-4.919c-1.019,0-1.848-.83-1.849-1.849v-4.472c.002-1.018.831-1.846,1.849-1.847h6.139v8.167s-6.139,0-6.139,0Zm3.138-4.117c.018.566-.427,1.04-.993,1.057-.542-.017-.977-.452-.993-.993-.018-.566.427-1.04.993-1.057.542.017.977.452.993.993Z"/></svg>