<?xml version="1.0" encoding="UTF-8"?><svg id="Layer_1" xmlns="http://www.w3.org/2000/svg" viewBox="0 0 10.102 7.211"><defs><style>.cls-1{fill:#6665d2;}</style></defs><g id="Layer_2"><path class="cls-1" d="m8.856.9C7.618-.026,6.432,0,6.432,0l-.121.138c1.472.442,2.156,1.091,2.156,1.091C6.361.07,3.679.078,1.489,1.229c0,0,.71-.684,2.268-1.125L3.67,0s-1.177-.026-2.424.9C1.246.9,0,3.142,0,5.904,0,5.904.727,7.151,2.64,7.211c0,0,.32-.381.58-.71-1.099-.329-1.515-1.013-1.515-1.013.691.432,1.389.703,2.26.874,1.416.291,3.177-.008,4.493-.874,0,0-.433.701-1.567,1.022.26.32.571.693.571.693,1.913-.061,2.64-1.307,2.64-1.298,0-2.762-1.247-5.004-1.247-5.004ZM3.436,5.099c-.485,0-.883-.424-.883-.952.035-1.265,1.739-1.261,1.766,0,0,.528-.39.952-.883.952Zm3.16,0c-.485,0-.883-.424-.883-.952.039-1.262,1.722-1.263,1.766,0,0,.528-.39.952-.883.952Z"/></g></svg>
