<?xml version="1.0" encoding="UTF-8"?><svg id="Layer_1" xmlns="http://www.w3.org/2000/svg" viewBox="0 0 22 22.139"><defs><style>.cls-1{fill:#303030;}</style></defs><g id="_104493_linkedin_icon"><path id="Path_15" class="cls-1" d="m11.843,10.008v-.077c-.016.026-.033.052-.05.077h.05Z"/><path id="Path_16" class="cls-1" d="m20.374,0H1.625C.738-.011.011.699,0,1.586v18.968c.011.887.738,1.597,1.625,1.586h18.749c.887.011,1.614-.699,1.626-1.586V1.586C21.988.699,21.261-.011,20.374,0ZM6.668,18.533h-3.322v-10h3.323v10Zm-1.662-11.362h-.021c-.955.059-1.777-.666-1.836-1.621-.059-.955.666-1.777,1.621-1.836.086-.005.173-.004.259.003.954-.073,1.787.642,1.86,1.596.073.954-.642,1.787-1.596,1.86-.096.007-.192.007-.287-.002Zm13.644,11.362h-3.322v-5.349c0-1.343-.481-2.26-1.683-2.26-.768.005-1.45.492-1.705,1.216-.085.262-.122.536-.109.811v5.582h-3.325s.044-9.06,0-10h3.323v1.415c.614-1.067,1.77-1.703,3-1.651,2.186,0,3.825,1.429,3.825,4.5v5.736h-.004Z"/></g></svg>