<?xml version="1.0" encoding="UTF-8"?><svg id="Layer_1" xmlns="http://www.w3.org/2000/svg" viewBox="0 0 9.765 9.764"><defs><style>.cls-1{fill:#303030;stroke-width:0px;}</style></defs><path class="cls-1" d="m4.882,0C2.19,0,0,2.19,0,4.882s2.19,4.882,4.882,4.882,4.883-2.19,4.883-4.882S7.574,0,4.882,0Zm4.358,4.632h-2.473c-.031-1.579-.352-3.179-.938-4.023,1.882.417,3.297,2.046,3.411,4.023Zm-4.358,4.632c-.633,0-1.331-1.754-1.379-4.132h2.758c-.048,2.378-.747,4.132-1.38,4.132Zm-1.379-4.632c.048-2.378.746-4.132,1.379-4.132s1.332,1.754,1.38,4.132h-2.758Zm.432-4.022c-.585.844-.906,2.444-.937,4.022H.525c.114-1.977,1.529-3.605,3.41-4.022ZM.525,5.132h2.473c.031,1.579.352,3.179.937,4.022-1.881-.417-3.296-2.046-3.41-4.022Zm5.303,4.023c.585-.844.907-2.444.938-4.023h2.473c-.114,1.977-1.529,3.606-3.411,4.023Z"/></svg>